#Comment line ignore any data following # character 
#Hierarchical Translation and Rotation (.htr) file 
[Header]	
#Header keywords are followed by a single value 
FileType HTR		#Single word string
DataType HTRS		#Translation followed by rotation and scale data
FileVersion 1		#integer
NumSegments 84		#integer
NumFrames 2		#integer
DataFrameRate 30		#integer, data frame rate in this file
EulerRotationOrder ZYX
CalibrationUnits mm
RotationUnits Degrees
GlobalAxisofGravity Y
BoneLengthAxis Y
ScaleFactor 1.00
[SegmentNames&Hierarchy]
#CHILD	PARENT
MASTER GLOBAL
root MASTER
chest root
L_mid_tent01 root
R_mid_tent01 root
spine01 root
Bip01_Neck chest
L_humerus chest
R_humerus chest
weapon_bone chest
Bip01_Head Bip01_Neck
eye_left_bone Bip01_Head
eye_right_bone Bip01_Head
L_forearm L_humerus
L_front_hand L_forearm
L_weapon_bone L_forearm
L_front_hand01_01 L_front_hand
L_front_hand02_01 L_front_hand
L_front_hand03_01 L_front_hand
L_front_hand01_02 L_front_hand01_01
L_front_hand02_02 L_front_hand02_01
L_front_hand03_02 L_front_hand03_01
R_forearm R_humerus
R_front_hand R_forearm
R_weapon_bone R_forearm
R_front_hand01_01 R_front_hand
R_front_hand02_01 R_front_hand
R_front_hand03_01 R_front_hand
R_front_hand01_02 R_front_hand01_01
R_front_hand02_02 R_front_hand02_01
R_front_hand03_02 R_front_hand03_01
null_rope01_connect L_mid_tent01
Rope1_Seg01 null_rope01_connect
Rope1_Seg02 Rope1_Seg01
Rope1_Seg03 Rope1_Seg02
Rope1_Seg04 Rope1_Seg03
Rope1_Seg05 Rope1_Seg04
Rope1_Seg06 Rope1_Seg05
Rope1_Seg07 Rope1_Seg06
Rope1_Seg09 Rope1_Seg07
L_mid_hand01 Rope1_Seg09
L_mid_hand02 Rope1_Seg09
L_mid_hand03 Rope1_Seg09
null_rope02_connect R_mid_tent01
Rope2_Seg01 null_rope02_connect
Rope2_Seg02 Rope2_Seg01
Rope2_Seg03 Rope2_Seg02
Rope2_Seg04 Rope2_Seg03
Rope2_Seg05 Rope2_Seg04
Rope2_Seg06 Rope2_Seg05
Rope2_Seg07 Rope2_Seg06
Rope2_Seg09 Rope2_Seg07
R_mid_hand01 Rope2_Seg09
R_mid_hand02 Rope2_Seg09
R_mid_hand03 Rope2_Seg09
spine02 spine01
spine03 spine02
pelvis spine03
null_rope03_connect pelvis
null_rope04_connect pelvis
Rope3_Seg01 null_rope03_connect
Rope3_Seg02 Rope3_Seg01
Rope3_Seg03 Rope3_Seg02
Rope3_Seg04 Rope3_Seg03
Rope3_Seg05 Rope3_Seg04
Rope3_Seg06 Rope3_Seg05
Rope3_Seg07 Rope3_Seg06
Rope3_Seg08 Rope3_Seg07
Rope3_Seg09 Rope3_Seg08
R_rear_hand01 Rope3_Seg09
R_rear_hand02 Rope3_Seg09
R_rear_hand03 Rope3_Seg09
Rope4_Seg01 null_rope04_connect
Rope4_Seg02 Rope4_Seg01
Rope4_Seg03 Rope4_Seg02
Rope4_Seg04 Rope4_Seg03
Rope4_Seg05 Rope4_Seg04
Rope4_Seg06 Rope4_Seg05
Rope4_Seg07 Rope4_Seg06
Rope4_Seg08 Rope4_Seg07
Rope4_Seg09 Rope4_Seg08
L_rear_hand01 Rope4_Seg09
L_rear_hand02 Rope4_Seg09
L_rear_hand03 Rope4_Seg09
[BasePosition]
#SegmentName Tx, Ty, Tz, Rx, Ry, Rz, BoneLength
MASTER 0.000000 0.000000 0.000000 -90.000000 0.000000 0.000000 10.000000 
root 0.000000 0.000000 0.000000 0.000000 0.000000 0.000000 10.000000 
chest 0.000000 0.000000 0.000000 0.000000 0.000000 0.000000 10.000000 
L_mid_tent01 0.000000 0.000000 0.000000 0.000000 0.000000 0.000000 10.000000 
R_mid_tent01 0.000000 0.000000 0.000000 0.000000 0.000000 0.000000 10.000000 
spine01 0.000000 0.000000 0.000000 0.000000 0.000000 0.000000 10.000000 
Bip01_Neck 0.000000 0.000000 0.000000 0.000000 0.000000 0.000000 10.000000 
L_humerus 0.000000 0.000000 0.000000 0.000000 0.000000 0.000000 10.000000 
R_humerus 0.000000 0.000000 0.000000 0.000000 0.000000 0.000000 10.000000 
weapon_bone 0.000000 0.000000 0.000000 0.000000 0.000000 0.000000 10.000000 
Bip01_Head 0.000000 0.000000 0.000000 0.000000 0.000000 0.000000 10.000000 
eye_left_bone 0.000000 0.000000 0.000000 0.000000 0.000000 0.000000 10.000000 
eye_right_bone 0.000000 0.000000 0.000000 0.000000 0.000000 0.000000 10.000000 
L_forearm 0.000000 0.000000 0.000000 0.000000 0.000000 0.000000 10.000000 
L_front_hand 0.000000 0.000000 0.000000 0.000000 0.000000 0.000000 10.000000 
L_weapon_bone 0.000000 0.000000 0.000000 0.000000 0.000000 0.000000 10.000000 
L_front_hand01_01 0.000000 0.000000 0.000000 0.000000 0.000000 0.000000 10.000000 
L_front_hand02_01 0.000000 0.000000 0.000000 0.000000 0.000000 0.000000 10.000000 
L_front_hand03_01 0.000000 0.000000 0.000000 0.000000 0.000000 0.000000 10.000000 
L_front_hand01_02 0.000000 0.000000 0.000000 0.000000 0.000000 0.000000 10.000000 
L_front_hand02_02 0.000000 0.000000 0.000000 0.000000 0.000000 0.000000 10.000000 
L_front_hand03_02 0.000000 0.000000 0.000000 0.000000 0.000000 0.000000 10.000000 
R_forearm 0.000000 0.000000 0.000000 0.000000 0.000000 0.000000 10.000000 
R_front_hand 0.000000 0.000000 0.000000 0.000000 0.000000 0.000000 10.000000 
R_weapon_bone 0.000000 0.000000 0.000000 0.000000 0.000000 0.000000 10.000000 
R_front_hand01_01 0.000000 0.000000 0.000000 0.000000 0.000000 0.000000 10.000000 
R_front_hand02_01 0.000000 0.000000 0.000000 0.000000 0.000000 0.000000 10.000000 
R_front_hand03_01 0.000000 0.000000 0.000000 0.000000 0.000000 0.000000 10.000000 
R_front_hand01_02 0.000000 0.000000 0.000000 0.000000 0.000000 0.000000 10.000000 
R_front_hand02_02 0.000000 0.000000 0.000000 0.000000 0.000000 0.000000 10.000000 
R_front_hand03_02 0.000000 0.000000 0.000000 0.000000 0.000000 0.000000 10.000000 
null_rope01_connect 0.000000 0.000000 0.000000 0.000000 0.000000 0.000000 10.000000 
Rope1_Seg01 0.000000 0.000000 0.000000 0.000000 0.000000 0.000000 10.000000 
Rope1_Seg02 0.000000 0.000000 0.000000 0.000000 0.000000 0.000000 10.000000 
Rope1_Seg03 0.000000 0.000000 0.000000 0.000000 0.000000 0.000000 10.000000 
Rope1_Seg04 0.000000 0.000000 0.000000 0.000000 0.000000 0.000000 10.000000 
Rope1_Seg05 0.000000 0.000000 0.000000 0.000000 0.000000 0.000000 10.000000 
Rope1_Seg06 0.000000 0.000000 0.000000 0.000000 0.000000 0.000000 10.000000 
Rope1_Seg07 0.000000 0.000000 0.000000 0.000000 0.000000 0.000000 10.000000 
Rope1_Seg09 0.000000 0.000000 0.000000 0.000000 0.000000 0.000000 10.000000 
L_mid_hand01 0.000000 0.000000 0.000000 0.000000 0.000000 0.000000 10.000000 
L_mid_hand02 0.000000 0.000000 0.000000 0.000000 0.000000 0.000000 10.000000 
L_mid_hand03 0.000000 0.000000 0.000000 0.000000 0.000000 0.000000 10.000000 
null_rope02_connect 0.000000 0.000000 0.000000 0.000000 0.000000 0.000000 10.000000 
Rope2_Seg01 0.000000 0.000000 0.000000 0.000000 0.000000 0.000000 10.000000 
Rope2_Seg02 0.000000 0.000000 0.000000 0.000000 0.000000 0.000000 10.000000 
Rope2_Seg03 0.000000 0.000000 0.000000 0.000000 0.000000 0.000000 10.000000 
Rope2_Seg04 0.000000 0.000000 0.000000 0.000000 0.000000 0.000000 10.000000 
Rope2_Seg05 0.000000 0.000000 0.000000 0.000000 0.000000 0.000000 10.000000 
Rope2_Seg06 0.000000 0.000000 0.000000 0.000000 0.000000 0.000000 10.000000 
Rope2_Seg07 0.000000 0.000000 0.000000 0.000000 0.000000 0.000000 10.000000 
Rope2_Seg09 0.000000 0.000000 0.000000 0.000000 0.000000 0.000000 10.000000 
R_mid_hand01 0.000000 0.000000 0.000000 0.000000 0.000000 0.000000 10.000000 
R_mid_hand02 0.000000 0.000000 0.000000 0.000000 0.000000 0.000000 10.000000 
R_mid_hand03 0.000000 0.000000 0.000000 0.000000 0.000000 0.000000 10.000000 
spine02 0.000000 0.000000 0.000000 0.000000 0.000000 0.000000 10.000000 
spine03 0.000000 0.000000 0.000000 0.000000 0.000000 0.000000 10.000000 
pelvis 0.000000 0.000000 0.000000 0.000000 0.000000 0.000000 10.000000 
null_rope03_connect 0.000000 0.000000 0.000000 0.000000 0.000000 0.000000 10.000000 
null_rope04_connect 0.000000 0.000000 0.000000 0.000000 0.000000 0.000000 10.000000 
Rope3_Seg01 0.000000 0.000000 0.000000 0.000000 0.000000 0.000000 10.000000 
Rope3_Seg02 0.000000 0.000000 0.000000 0.000000 0.000000 0.000000 10.000000 
Rope3_Seg03 0.000000 0.000000 0.000000 0.000000 0.000000 0.000000 10.000000 
Rope3_Seg04 0.000000 0.000000 0.000000 0.000000 0.000000 0.000000 10.000000 
Rope3_Seg05 0.000000 0.000000 0.000000 0.000000 0.000000 0.000000 10.000000 
Rope3_Seg06 0.000000 0.000000 0.000000 0.000000 0.000000 0.000000 10.000000 
Rope3_Seg07 0.000000 0.000000 0.000000 0.000000 0.000000 0.000000 10.000000 
Rope3_Seg08 0.000000 0.000000 0.000000 0.000000 0.000000 0.000000 10.000000 
Rope3_Seg09 0.000000 0.000000 0.000000 0.000000 0.000000 0.000000 10.000000 
R_rear_hand01 0.000000 0.000000 0.000000 0.000000 0.000000 0.000000 10.000000 
R_rear_hand02 0.000000 0.000000 0.000000 0.000000 0.000000 0.000000 10.000000 
R_rear_hand03 0.000000 0.000000 0.000000 0.000000 0.000000 0.000000 10.000000 
Rope4_Seg01 0.000000 0.000000 0.000000 0.000000 0.000000 0.000000 10.000000 
Rope4_Seg02 0.000000 0.000000 0.000000 0.000000 0.000000 0.000000 10.000000 
Rope4_Seg03 0.000000 0.000000 0.000000 0.000000 0.000000 0.000000 10.000000 
Rope4_Seg04 0.000000 0.000000 0.000000 0.000000 0.000000 0.000000 10.000000 
Rope4_Seg05 0.000000 0.000000 0.000000 0.000000 0.000000 0.000000 10.000000 
Rope4_Seg06 0.000000 0.000000 0.000000 0.000000 0.000000 0.000000 10.000000 
Rope4_Seg07 0.000000 0.000000 0.000000 0.000000 0.000000 0.000000 10.000000 
Rope4_Seg08 0.000000 0.000000 0.000000 0.000000 0.000000 0.000000 10.000000 
Rope4_Seg09 0.000000 0.000000 0.000000 0.000000 0.000000 0.000000 10.000000 
L_rear_hand01 0.000000 0.000000 0.000000 0.000000 0.000000 0.000000 10.000000 
L_rear_hand02 0.000000 0.000000 0.000000 0.000000 0.000000 0.000000 10.000000 
L_rear_hand03 0.000000 0.000000 0.000000 0.000000 0.000000 0.000000 10.000000 
#Beginning of Data. Separated by tabs
#Fr	Tx	Ty	Tz	Rx	Ry	Rz	SF
[MASTER]
23 -5122.015137 -0.000775 0.000000 0.001244 0.001990 -25.977406 5122.014648
24 -5290.051758 -0.000801 0.000000 0.001234 0.001997 -26.561438 5290.051758
[root]
23 -16.502380 -62.821960 1500.000000 -91.629723 -27.676090 -90.148125 1501.405640
24 -16.502380 -62.822067 1500.000000 -91.629700 -27.676081 -90.148109 1501.405640
[chest]
23 -84.512650 -34.090519 0.000000 -4.086636 1.534406 -177.873642 91.129311
24 -84.512650 -34.090519 0.000000 -4.086637 1.534406 -177.873642 91.129311
[L_mid_tent01]
23 27.299763 22.177570 -249.918427 3.862630 36.229198 81.347610 252.381348
24 27.299774 22.177574 -249.918457 3.862628 36.229202 81.347610 252.381378
[R_mid_tent01]
23 23.228794 24.509907 226.238495 160.432037 -47.061234 87.899765 228.744751
24 23.228794 24.509907 226.238495 160.432037 -47.061241 87.899765 228.744751
[spine01]
23 -0.361383 -0.195265 0.000000 -0.419415 0.320593 11.076406 0.410763
24 -0.361383 -0.195265 0.000000 -0.419415 0.320593 11.076404 0.410763
[Bip01_Neck]
23 165.484543 71.581718 0.000119 175.896118 1.177290 24.871183 180.302734
24 165.484543 71.581718 0.000119 175.896118 1.177290 24.871183 180.302734
[L_humerus]
23 -13.983130 -135.272980 -120.471481 170.940796 81.564224 -99.189163 181.680161
24 -13.983130 -135.272980 -120.471481 170.940796 81.564224 -99.189163 181.680161
[R_humerus]
23 -13.983309 -135.273102 125.287651 -159.666046 -68.957870 -101.166077 184.909012
24 -13.983309 -135.273102 125.287651 -159.666046 -68.957870 -101.166077 184.909012
[weapon_bone]
23 235.964890 -300.705902 0.000000 0.000000 -89.951546 -128.212341 382.234833
24 235.964890 -300.705902 0.000000 0.000000 -89.951546 -128.212341 382.234833
[Bip01_Head]
23 204.668442 181.886063 11.027789 -3.585366 8.053572 -55.048794 274.031616
24 227.763382 152.175064 5.368151 -1.206089 7.150336 -58.064632 273.974854
[eye_left_bone]
23 -24.626970 125.451866 -64.772606 0.000000 -90.000000 -99.840431 143.318359
24 -24.626970 125.451866 -64.772606 0.000000 -90.000000 -99.840431 143.318359
[eye_right_bone]
23 -24.626970 125.451866 64.327362 0.000000 -89.960434 80.159386 143.117676
24 -24.626970 125.451866 64.327362 0.000000 -89.960434 80.159386 143.117676
[L_forearm]
23 322.776093 0.000000 -0.000119 0.000183 0.002340 -81.045212 322.776093
24 322.776093 0.000000 -0.000119 0.000183 0.002340 -81.045212 322.776093
[L_front_hand]
23 241.149185 -0.042021 -3.300071 -177.732910 -0.049191 -80.028023 241.171753
24 241.149185 -0.042021 -3.300071 -177.732910 -0.049191 -80.028023 241.171753
[L_weapon_bone]
23 156.183838 0.000000 0.000000 0.001660 0.001660 0.001660 156.183838
24 156.183838 0.000000 0.000000 0.001660 0.001660 0.001660 156.183838
[L_front_hand01_01]
23 86.095154 20.947098 -0.655860 0.405585 -0.442306 -4.620490 88.609184
24 86.095154 20.947098 -0.655860 0.405585 -0.442306 -4.620490 88.609184
[L_front_hand02_01]
23 86.935165 -11.437475 24.513514 116.959450 3.630817 1.495453 91.046425
24 86.935165 -11.437475 24.513514 116.959450 3.630817 1.495453 91.046425
[L_front_hand03_01]
23 86.637497 -14.123976 -20.424902 -118.420097 -4.656303 -0.152527 90.126129
24 86.637497 -14.123976 -20.424902 -118.420097 -4.656303 -0.152527 90.126129
[L_front_hand01_02]
23 71.020905 -0.000179 0.000030 0.001534 0.001777 -8.378850 71.020905
24 71.020905 -0.000179 0.000030 0.001534 0.001777 -8.378850 71.020905
[L_front_hand02_02]
23 71.020927 -0.000119 0.000060 0.001534 0.001777 -8.378850 71.020927
24 71.020927 -0.000119 0.000060 0.001534 0.001777 -8.378850 71.020927
[L_front_hand03_02]
23 71.020905 -0.000060 0.000060 0.001534 0.001777 -8.378850 71.020905
24 71.020905 -0.000060 0.000060 0.001534 0.001777 -8.378850 71.020905
[R_forearm]
23 322.776428 -0.000060 0.000030 0.202513 -0.063871 -72.666046 322.776428
24 322.776428 -0.000060 0.000030 0.202513 -0.063871 -72.666046 322.776428
[R_front_hand]
23 238.847015 -0.006795 2.210259 -1.676069 -0.420464 -92.752876 238.857239
24 238.847015 -0.006795 2.210259 -1.676069 -0.420464 -92.752876 238.857239
[R_weapon_bone]
23 155.664093 0.002503 -0.000030 0.003487 0.001180 -90.988930 155.664078
24 155.664093 0.002503 -0.000030 0.003487 0.001180 -90.988930 155.664078
[R_front_hand01_01]
23 87.624611 14.231146 22.918642 -116.960213 3.496675 -1.324139 91.683487
24 87.624611 14.231146 22.918642 -116.960213 3.496675 -1.324139 91.683487
[R_front_hand02_01]
23 89.356956 14.367283 -19.491137 118.419647 -4.257089 0.609827 92.579636
24 89.356956 14.367283 -19.491137 118.419647 -4.257089 0.609827 92.579636
[R_front_hand03_01]
23 87.286232 -22.307278 -0.143439 -0.387970 -0.231462 4.232001 90.091743
24 87.286232 -22.307278 -0.143439 -0.387970 -0.231462 4.232001 90.091743
[R_front_hand01_02]
23 71.020905 0.000060 0.000119 0.001777 0.001534 8.377220 71.020905
24 71.020905 0.000060 0.000119 0.001777 0.001534 8.377220 71.020905
[R_front_hand02_02]
23 71.020844 -0.000030 -0.000119 0.001777 0.001534 8.377220 71.020836
24 71.020844 -0.000030 -0.000119 0.001777 0.001534 8.377220 71.020836
[R_front_hand03_02]
23 71.020905 0.000000 0.000030 0.001777 0.001534 8.377220 71.020905
24 71.020905 0.000000 0.000030 0.001777 0.001534 8.377220 71.020905
[null_rope01_connect]
23 328.732483 0.000000 -0.000238 -122.337517 -31.693581 152.926071 328.732483
24 328.732483 0.000000 -0.000238 -122.149094 -31.199720 152.563812 328.732483
[Rope1_Seg01]
23 0.000000 0.000000 0.000000 94.063950 53.736244 111.902252 0.000000
24 0.000000 0.000000 0.000000 91.066254 50.269981 108.065788 0.000000
[Rope1_Seg02]
23 139.999863 -0.000179 0.000000 -0.251860 -6.403717 1.432467 139.999863
24 139.999863 -0.000179 0.000000 -0.689758 -7.641719 1.519935 139.999863
[Rope1_Seg03]
23 139.999924 0.000060 -0.000060 -1.272741 -10.420292 2.318026 139.999924
24 139.999924 0.000060 -0.000060 -2.335637 -12.171958 2.230773 139.999924
[Rope1_Seg04]
23 139.999924 -0.000060 -0.000119 -5.688467 -19.360428 4.966957 139.999924
24 139.999924 -0.000060 -0.000119 -8.545155 -21.322716 2.289394 139.999924
[Rope1_Seg05]
23 139.999832 0.000119 -0.000060 -15.905783 -24.915100 1.650922 139.999832
24 139.999832 0.000119 -0.000060 -13.224973 -19.365784 2.773002 139.999832
[Rope1_Seg06]
23 139.999954 0.000119 -0.000060 -6.237000 -5.600590 -2.847215 139.999954
24 139.999954 0.000119 -0.000060 -5.721910 -6.286479 0.276478 139.999954
[Rope1_Seg07]
23 139.999985 0.000060 0.000000 -3.954302 -3.527163 -1.564870 139.999985
24 139.999985 0.000060 0.000000 -4.285661 -3.668375 -0.583974 139.999985
[Rope1_Seg09]
23 121.602913 0.000119 -0.000089 -89.793175 -1.359789 0.847147 121.602913
24 121.602913 0.000119 -0.000089 -89.793175 -1.359789 0.847147 121.602913
[L_mid_hand01]
23 103.859421 1.038730 8.195221 105.579529 -22.648388 -6.659525 104.187431
24 103.859421 1.038730 8.195221 105.620987 -22.988335 -6.761933 104.187431
[L_mid_hand02]
23 105.572853 -4.139662 -10.864139 -139.393402 20.098043 -21.242613 106.211075
24 105.572853 -4.139662 -10.864139 -139.491974 20.327143 -21.528740 106.211075
[L_mid_hand03]
23 104.641464 17.579376 -3.913581 -17.397032 7.151557 25.563231 106.179977
24 104.641464 17.579376 -3.913581 -17.354424 7.254999 25.905664 106.179977
[null_rope02_connect]
23 328.732849 0.000179 -0.000119 -147.035995 60.273579 -11.169401 328.732849
24 328.732849 0.000179 -0.000119 -147.902115 60.585037 -12.162191 328.732849
[Rope2_Seg01]
23 -0.000043 0.000134 0.000153 -85.622253 53.449116 9.892946 0.000207
24 -0.000041 0.000134 0.000153 -76.971191 49.820122 16.705080 0.000207
[Rope2_Seg02]
23 139.999741 -0.000060 -0.000119 1.984970 -8.609201 0.338362 139.999756
24 139.999741 -0.000060 -0.000119 1.406147 -7.479373 0.578891 139.999756
[Rope2_Seg03]
23 140.000107 0.000030 0.000000 1.651635 -9.817566 0.266895 140.000107
24 140.000107 0.000030 0.000000 1.064428 -8.381798 0.791528 140.000107
[Rope2_Seg04]
23 139.999802 0.000000 -0.000060 1.449233 -8.497248 -1.326098 139.999802
24 139.999802 0.000000 -0.000060 0.692086 -10.639848 1.174074 139.999802
[Rope2_Seg05]
23 139.999985 -0.000060 0.000119 -1.572503 -21.086342 8.416274 139.999985
24 139.999985 -0.000060 0.000119 -1.420942 -24.959936 4.364543 139.999985
[Rope2_Seg06]
23 139.999893 -0.000030 -0.000119 -1.204829 -17.434860 8.605268 139.999893
24 139.999893 -0.000030 -0.000119 -1.622659 -12.242380 1.971562 139.999893
[Rope2_Seg07]
23 139.999893 0.000060 -0.000060 -0.410196 -7.616813 3.206579 139.999893
24 139.999893 0.000060 -0.000060 -1.089462 -5.671695 0.734049 139.999893
[Rope2_Seg09]
23 121.338966 0.000089 -0.000060 33.793236 -1.359788 -0.847141 121.338966
24 121.338966 0.000089 -0.000060 33.793236 -1.359788 -0.847141 121.338966
[R_mid_hand01]
23 104.680779 11.144459 -10.335981 -44.145947 19.560667 21.759449 105.778534
24 104.680779 11.144459 -10.335981 -44.070736 19.764444 21.986286 105.778534
[R_mid_hand02]
23 104.070427 2.443552 8.231699 74.186195 -24.483601 7.232481 104.424065
24 104.070427 2.443552 8.231699 74.148849 -24.768806 7.320621 104.424065
[R_mid_hand03]
23 106.028137 -11.221827 -5.996406 -166.520828 8.347037 -28.494413 106.788818
24 106.028137 -11.221827 -5.996406 -166.566208 8.416404 -28.789036 106.788818
[spine02]
23 129.756927 0.001550 0.000119 -0.031994 -3.941140 -7.370806 129.756927
24 129.756927 0.001550 0.000119 -0.031994 -3.941140 -7.370806 129.756927
[spine03]
23 79.115479 -0.000076 -0.000076 1.907030 -2.965995 23.921795 79.115479
24 79.115524 0.000000 -0.000153 1.907030 -2.965995 23.921795 79.115524
[pelvis]
23 169.435242 0.051022 0.000000 -6.575613 1.957168 -4.100006 169.435257
24 169.435242 0.051022 0.000000 -3.509501 2.447347 -4.216653 169.435257
[null_rope03_connect]
23 -1.257226 -2.466202 137.391083 -109.407272 -65.603470 -158.295334 137.418976
24 -1.257226 -2.466202 137.391083 -101.622574 -65.522919 -165.372604 137.418976
[null_rope04_connect]
23 -1.259640 -2.480268 -137.844437 -109.407272 -65.603470 -158.295334 137.872513
24 -1.259640 -2.480268 -137.844437 -101.622574 -65.522919 -165.372604 137.872513
[Rope3_Seg01]
23 0.000000 0.000000 0.000000 -131.214722 -19.023266 -78.543640 0.000000
24 0.000000 0.000000 0.000000 -129.809982 -18.722216 -83.008858 0.000000
[Rope3_Seg02]
23 139.999924 -0.000119 0.000060 -4.254242 -4.934598 -33.932407 139.999924
24 139.999924 -0.000119 0.000060 -5.478292 -2.340430 -38.078938 139.999924
[Rope3_Seg03]
23 139.999924 -0.000119 0.000119 -29.548693 3.626065 -33.218510 139.999924
24 139.999924 -0.000119 0.000119 -36.283493 6.558969 -38.851261 139.999924
[Rope3_Seg04]
23 139.999924 0.000119 0.000000 -55.383537 6.305193 -29.137140 139.999924
24 139.999924 0.000119 0.000000 -54.445225 11.403982 -30.431850 139.999924
[Rope3_Seg05]
23 139.999924 -0.000238 0.000060 -51.684853 25.085445 -17.623072 139.999924
24 139.999924 -0.000238 0.000060 -36.849876 24.990789 -12.224201 139.999924
[Rope3_Seg06]
23 139.999893 -0.000119 -0.000060 -5.901845 9.888747 3.204403 139.999893
24 139.999893 -0.000119 -0.000060 -4.859171 8.617851 2.067928 139.999893
[Rope3_Seg07]
23 139.999771 0.000060 -0.000119 -1.711763 4.810413 2.231935 139.999771
24 139.999771 0.000060 -0.000119 -1.654417 4.556349 1.549626 139.999771
[Rope3_Seg08]
23 139.999985 -0.000060 0.000000 -0.488390 2.589263 1.301599 139.999985
24 139.999985 -0.000060 0.000000 -0.502432 2.498666 0.930627 139.999985
[Rope3_Seg09]
23 90.185997 -0.000179 -0.000060 89.793228 -1.359877 -0.847183 90.185997
24 90.185997 -0.000179 -0.000060 89.793228 -1.359877 -0.847183 90.185997
[R_rear_hand01]
23 103.366196 -6.073594 -10.757982 -159.959000 14.681531 -24.191771 104.101845
24 103.366196 -6.073594 -10.757982 -160.090088 14.865479 -24.717995 104.101845
[R_rear_hand02]
23 100.509819 12.039542 -7.992327 -35.841637 15.831045 23.713284 101.543350
24 100.509819 12.039542 -7.992327 -35.711582 16.148796 24.170401 101.543350
[R_rear_hand03]
23 101.539970 5.215704 5.435467 83.722893 -24.961674 6.520506 101.819031
24 101.539970 5.215704 5.435467 83.699936 -25.497597 6.583542 101.819031
[Rope4_Seg01]
23 -0.000011 -0.000009 -0.000153 44.016762 -1.987809 -140.130249 0.000153
24 -0.000010 -0.000006 -0.000153 42.917404 1.091305 -136.086365 0.000153
[Rope4_Seg02]
23 139.999985 0.000060 0.000119 97.531418 -53.995232 -16.091536 139.999985
24 139.999985 0.000060 0.000119 93.125862 -60.931183 -12.125727 139.999985
[Rope4_Seg03]
23 139.999924 0.000000 -0.000238 50.547073 -5.434618 29.279984 139.999924
24 139.999924 0.000000 -0.000238 44.467720 -4.851902 33.502857 139.999924
[Rope4_Seg04]
23 139.999985 0.000000 0.000119 15.892168 20.475935 29.992399 139.999985
24 139.999985 0.000000 0.000119 14.719082 14.636996 29.505598 139.999985
[Rope4_Seg05]
23 139.999802 -0.000060 -0.000119 5.105960 21.163723 21.487177 139.999802
24 139.999802 -0.000060 -0.000119 4.947448 17.308252 23.890104 139.999802
[Rope4_Seg06]
23 139.999924 0.000000 0.000060 -0.045210 6.270948 5.657937 139.999924
24 139.999924 0.000000 0.000060 -0.301776 5.655066 6.804380 139.999924
[Rope4_Seg07]
23 139.999802 0.000000 0.000000 -0.176720 3.435640 3.128785 139.999802
24 139.999802 0.000000 0.000000 -0.425309 3.098994 3.795514 139.999802
[Rope4_Seg08]
23 139.999924 0.000000 0.000119 -1.701095 1.892516 1.739681 139.999924
24 139.999924 0.000000 0.000119 -1.871515 1.703567 2.120914 139.999924
[Rope4_Seg09]
23 90.185791 0.000060 0.000060 -135.617828 2.228885 0.850567 90.185791
24 90.185791 0.000060 0.000060 -135.617828 2.228885 0.850567 90.185791
[L_rear_hand01]
23 101.696655 -8.392275 -7.654577 -36.362705 -14.425787 158.284409 102.329041
24 101.696655 -8.392275 -7.654577 -36.242058 -14.765300 157.809067 102.329041
[L_rear_hand02]
23 102.726799 -1.568258 5.773216 83.841537 22.586632 173.765472 102.900848
24 102.726799 -1.568258 5.773216 83.814362 23.151863 173.698151 102.900848
[L_rear_hand03]
23 104.552910 9.721220 -10.420293 -159.389603 -13.851099 -158.113632 105.519653
24 104.552910 9.721220 -10.420293 -159.518845 -14.052428 -157.569275 105.519653
